<?xml version="1.0" encoding="utf-8"?>
<!-- Generator: Adobe Illustrator 23.0.3, SVG Export Plug-In . SVG Version: 6.00 Build 0)  -->
<svg version="1.1" id="Layer_1" xmlns="http://www.w3.org/2000/svg" xmlns:xlink="http://www.w3.org/1999/xlink" x="0px" y="0px"
	 viewBox="0 0 150 150" style="enable-background:new 0 0 150 150;" xml:space="preserve">
<style type="text/css">
	.st0{fill-rule:evenodd;clip-rule:evenodd;fill:#586FAC;}
	.st1{fill-rule:evenodd;clip-rule:evenodd;fill:#FFFFFF;}
	.st2{fill-rule:evenodd;clip-rule:evenodd;fill:#1D335A;}
	.st3{fill-rule:evenodd;clip-rule:evenodd;fill:#9F1A19;}
	.st4{fill-rule:evenodd;clip-rule:evenodd;fill:#801816;}
	.st5{fill:#D1D1D1;}
	.st6{fill:#FFFFFF;}
	.st7{fill:#1D335A;}
</style>
<path class="st0" d="M123.81,65.56c-0.04-0.07,6.35,0.97,7.29,6.45c0,0,7.76,0.75,12.2,9.75c2.37,4.79,6.45,9.82-4.88,20.8
	c0,0-5.16,5.51-12.69,11.04L123.81,65.56z"/>
<path class="st0" d="M34.72,54.62c0,0-1.97,3.38,1.11,2.13l6.08-2.76l-4.85-4.13L34.72,54.62z"/>
<path class="st0" d="M42.4,81.01c0,0-9.5,5.32-10.08,14.66l0.2,6.68c0,0-6.48,8.33-4.39,16.44c0,0,0.27,15.74,25.49,14.99l5.92,0.03
	L43.28,90.33L42.4,81.01z"/>
<g>
	<path class="st0" d="M35.57,53.44"/>
	<path class="st0" d="M73.48,39.13c-1.11-0.63-4.56-3.51-5.7-4.08c0.86-4.36,1.68-8.79,2.44-13.18c0.17-1-0.27-2-1.12-2.55
		c-0.42-0.27-0.9-0.41-1.37-0.41c-0.49,0-0.99,0.14-1.42,0.43c-4.56,3.08-8.87,6.53-12.82,10.27c-0.03-0.01-0.07-0.02-0.1-0.03
		c-0.51-0.79-1.04-1.58-1.59-2.36c2.36-1.75,4.84-3.41,7.38-4.94c0.99-0.6,1.45-1.79,1.12-2.9c-0.32-1.07-1.31-1.8-2.42-1.8
		c-0.04,0-0.07,0-0.11,0c-4.15,0.18-8.33,0.65-12.46,1.4c-2.13-2.39-4.41-4.68-6.8-6.84c-0.47-0.43-1.08-0.65-1.69-0.65
		c-0.31,0-0.63,0.06-0.93,0.18c-0.89,0.35-1.51,1.18-1.59,2.14c-0.14,1.67-0.28,3.4-0.41,5.16c-0.85,0.08-1.71,0.18-2.56,0.28
		c-0.97-2.02-1.98-4.03-3.03-5.99c-0.44-0.82-1.3-1.34-2.23-1.34c-0.02,0-0.04,0-0.06,0c-0.96,0.02-1.82,0.58-2.23,1.45
		c-0.38,0.81-0.76,1.63-1.13,2.45l0.48-2.53c0.2-1.08-0.31-2.17-1.28-2.69c-0.38-0.2-0.79-0.3-1.2-0.3c-0.64,0-1.27,0.24-1.75,0.71
		l-3.07,2.95c-0.71,0.68-1.41,1.38-2.11,2.1c-0.94,0.04-1.88,0.1-2.81,0.17l-3.73,0.31c-1.06,0.09-1.95,0.83-2.23,1.85
		s0.11,2.12,0.98,2.73l2.06,1.46c-0.06,0.07-0.12,0.15-0.18,0.22l-4.25,5.38C3.18,28.66,3,29.22,3,29.77c0,0.59,0.2,1.17,0.61,1.65
		c0.49,0.58,1.2,0.89,1.92,0.89c0.42,0,0.85-0.11,1.24-0.32l4.84-2.71l5.38,1.39c-0.7,2.2-1.33,4.41-1.88,6.57
		c-0.24,0.96,0.09,1.95,0.83,2.57c0,0.01,0,0.02,0,0.04c0.07,1.14,0.89,2.09,2.01,2.32c2.52,0.52,5,1.2,7.39,2.01
		c-0.68,2.55-1.27,5.13-1.78,7.68c-0.22,1.1,0.32,2.21,1.31,2.73c0.37,0.19,0.77,0.29,1.17,0.29c0.67,0,1.34-0.27,1.82-0.78
		c2.02-2.1,4.18-4.1,6.45-5.98c0.96,0.53,1.9,1.08,2.82,1.66"/>
	<g>
		<polyline class="st0" points="37.14,49.78 34.59,56.95 50.75,50.4 58.77,63.15 64,48.42 85.65,48.8 67.85,34.66 		"/>
		<circle class="st0" cx="82.72" cy="91.25" r="48.45"/>
	</g>
</g>
<g>
	<path class="st1" d="M38.13,91.59c0-24.72,20.04-44.76,44.76-44.76c24.72,0,44.76,20.04,44.76,44.76
		c0,24.72-20.04,44.76-44.76,44.76C58.18,136.35,38.13,116.31,38.13,91.59z"/>
	<path class="st2" d="M119.31,106.4c-2.25,1.86-4.88,3.64-7.61,4.99c-0.59,2.46-1.37,4.88-2.54,7.21c2.44-0.28,4.81-0.32,7.09,0.01
		c3.93-4.84,6.87-10.6,8.42-17.06c0.05-0.22,0.09-0.45,0.14-0.67C123.18,102.91,121.39,104.77,119.31,106.4z"/>
	<g>
		<path class="st2" d="M113.38,98.56l-0.24,0.14c0.07,3.02-0.19,5.77-0.63,8.47c5.65-3.13,10-7.53,13.29-13.4
			c0.29-5.36-0.42-10.62-2.02-15.55c-0.04,0.75-0.1,1.42-0.16,1.95C123.1,86.46,120.04,93.35,113.38,98.56z"/>
		<path class="st2" d="M68.18,66.44l3.18,6.78c7.04,14.92,11.56,23.63,25.34,26.34c4.59,0.9,9.03-0.04,12.84-2.53
			c-0.13-3.64-0.83-7.42-1.9-11.28c-4.7-16.21-13.99-28.62-27.53-37c2.06-0.11,4.15-0.08,6.25,0.1
			c11.84,8.63,20.06,20.55,24.52,35.87c1.02,3.26,1.62,6.61,1.84,9.86c4.64-4.29,7-9.94,7.39-14.06c0.4-4.5,0.01-8.51-0.95-12.11
			c-5.78-9.11-14.96-16.08-26.28-18.8c-11.59-2.79-23.21-0.59-32.62,5.2C63.06,58.03,65.71,61.84,68.18,66.44z"/>
		<path class="st2" d="M49.38,99.61c3.97,5.16,11.76,9.45,20.24,11.69c8.06,2.34,17.19,2.73,25.07,1.61
			c5.2-0.76,9.91-2.03,14.15-3.81c0.45-2.7,0.71-5.45,0.77-8.24c-4.14,2.21-8.72,2.92-13.5,1.97c-15.76-2.79-20.2-12.67-27.53-28.07
			l-3.56-6.87c-2.27-4.51-4.73-8.23-7.35-11.33c-8.07,5.81-14.19,14.43-16.7,24.86c-0.15,0.63-0.28,1.26-0.41,1.89
			C42.11,88.39,44.51,93.32,49.38,99.61z"/>
		<path class="st2" d="M93.78,126.72c-5.75,2.23-11.87,4.36-17.92,5.31c-2.2,0.32-4.38,0.41-6.53,0.3c1.12,0.37,2.27,0.71,3.43,0.99
			c6.36,1.53,12.72,1.55,18.73,0.31c2.08-1.04,4.11-2.34,6-4.02c2.06-1.91,3.75-3.91,5.29-6.15
			C99.95,124.4,96.88,125.47,93.78,126.72z"/>
		<path class="st2" d="M107.26,122.35c-1.45,2.77-3.33,5.32-5.48,7.77c4.29-2.11,8.22-4.92,11.61-8.33
			C111.4,121.76,109.35,121.96,107.26,122.35z"/>
		<path class="st2" d="M75.45,128.73c5.62-0.85,11.56-3.03,17.07-5.12c4.43-1.74,8.62-3.34,12.63-4.18c1.07-1.95,2-4.13,2.5-6.21
			c-3.77,1.5-7.82,2.53-12.4,3.23c-17.85,2.53-37.71-3.25-47.35-13.99c-3.71-4.12-6.17-8.5-8.03-13.41
			c-0.83,14.35,5.62,27.97,16.68,36.5C62.64,128.55,69.36,129.6,75.45,128.73z"/>
	</g>
</g>
<g>
	<path class="st2" d="M41.02,47.87c-0.6-2.19-1.26-4.37-1.97-6.53c1.84-1.2,3.75-2.34,5.73-3.4c0.7,0.72,1.38,1.45,2.05,2.19
		C44.72,42.64,42.78,45.23,41.02,47.87L41.02,47.87z M40.13,33.61c0.78,0.66,1.54,1.34,2.28,2.02c-1.48,0.02-2.96,0.08-4.44,0.18
		C38.67,35.07,39.39,34.33,40.13,33.61L40.13,33.61z M64.63,36.64c1.01-5.04,1.96-10.1,2.83-15.17c-4.98,3.36-9.54,7.09-13.65,11.1
		c-0.8-0.24-1.61-0.46-2.43-0.67c-1.1-1.74-2.27-3.44-3.51-5.12c3.03-2.37,6.25-4.6,9.66-6.64c-4.6,0.2-9.16,0.75-13.64,1.64
		C41.54,19.07,39,16.47,36.27,14c-0.21,2.45-0.39,4.9-0.57,7.35c-2.15,0.16-4.31,0.39-6.47,0.71c-0.12-0.25-0.33-0.81-0.4-0.82
		c-1.08-2.29-2.21-4.56-3.41-6.8c-0.72,1.51-1.4,3.03-2.06,4.56l-1.92-0.18c-0.86-0.08-1.73-0.14-2.59-0.18
		c0.1-0.55,0.19-1.09,0.29-1.61l0.8-4.22l-3.1,2.98c-0.93,0.9-1.86,1.84-2.77,2.8c-1.24,0.03-2.5,0.1-3.75,0.2l-3.76,0.31l3.08,2.18
		c0.41,0.29,0.82,0.59,1.23,0.89C10.23,22.91,9.6,23.68,9,24.45l-4.29,5.43l6.03-3.38c1.1-0.61,2.22-1.21,3.36-1.77
		c0.23,0.2,0.46,0.4,0.68,0.6l-3.67,1.48l8.41,2.18c-1.02,3.02-1.92,6.04-2.69,9.05c2.7-2.57,5.59-5.01,8.65-7.3
		c1.9,0.66,3.75,1.39,5.54,2.18c-0.49,1.31-0.96,2.62-1.4,3.93c-3.97,0.7-7.94,1.71-11.88,3.04c3.52,0.73,6.87,1.72,10.03,2.93
		c-0.94,3.28-1.73,6.57-2.37,9.84c2.47-2.57,5.16-5.02,8.06-7.3c2.34,1.2,4.54,2.52,6.62,3.96c-0.89,1.38-1.73,2.78-2.53,4.18
		c4.66-2.5,9.7-4.51,15.04-5.89c2.79,4.21,5.03,8.65,6.72,13.18c1.21-4.98,2.35-9.97,3.43-14.98c5.61-0.54,11.43-0.38,17.35,0.61
		C75.38,42.53,70.2,39.25,64.63,36.64z"/>
	<path class="st0" d="M41.42,30.99c0.24-0.23,0.49-0.45,0.74-0.68c1.77,0.48,3.51,1.02,5.2,1.62C45.4,31.54,43.42,31.23,41.42,30.99
		L41.42,30.99z M36.25,36.85c-0.05-0.15-0.11-0.29-0.17-0.44c1.3-1.44,2.66-2.84,4.07-4.22c1.66,1.39,3.24,2.84,4.73,4.35
		C42.02,36.48,39.13,36.58,36.25,36.85L36.25,36.85z M29.85,26.64c-0.01-0.02-0.02-0.04-0.02-0.06c2.29-1.51,4.67-2.93,7.12-4.25
		c-0.05,0.69-0.11,1.38-0.16,2.07C34.45,25.05,32.13,25.8,29.85,26.64L29.85,26.64z M17.16,25.69l0.06-0.55
		c0.1-0.91,0.22-1.83,0.35-2.76c1.31-0.55,2.65-1.07,3.98-1.54l2.78-0.98l-1.79,4.33L17.16,25.69L17.16,25.69z M63.37,37.09
		c0.82-4.32,1.58-8.65,2.3-12.99c-4.14,2.94-7.97,6.14-11.48,9.55c-1.22-0.37-2.44-0.7-3.69-1.01c-1.29-2.02-2.68-4.01-4.17-5.95
		c2.34-1.89,4.79-3.69,7.36-5.4c-3.54,0.3-7.04,0.82-10.5,1.53c-1.8-2.09-3.73-4.11-5.77-6.05c-0.16,1.79-0.32,3.59-0.46,5.38
		c-2.91,0.17-5.83,0.49-8.75,0.95c-0.9-1.9-1.85-3.78-2.83-5.65c-0.35,0.77-0.69,1.54-1.03,2.32l-2.98-0.27
		c-1.11-0.1-2.23-0.17-3.33-0.21c0.14-0.82,0.28-1.62,0.43-2.39l0.4-2.11l-1.55,1.49c-0.99,0.95-1.98,1.96-2.95,2.98
		c-1.32,0.03-2.67,0.09-4,0.2L8.5,19.62l1.54,1.09c0.62,0.44,1.23,0.88,1.83,1.34c-0.8,0.93-1.59,1.88-2.34,2.83l-2.14,2.71
		l3.02-1.69c1.24-0.69,2.51-1.36,3.79-1.98c0.63,0.54,1.26,1.09,1.88,1.65l0.35,0.32l-3.21,0.9c0,0,6.39,1.11,7.8,1.49
		c-0.8,2.24-1.53,4.48-2.2,6.72c2.12-1.87,4.33-3.67,6.64-5.38c2.36,0.8,4.63,1.71,6.82,2.72c-0.56-1.41-1.15-2.8-1.75-4.19
		c2,0.22,3.98,0.51,5.91,0.87c-0.17,2.38-0.33,4.75-0.47,7.12c-0.81-2.07-1.67-4.12-2.58-6.15c-1.04,2.53-2,5.07-2.87,7.62
		c-3.07,0.51-6.14,1.2-9.19,2.08c2.68,0.7,5.25,1.56,7.71,2.55c-0.77,2.54-1.46,5.08-2.05,7.62c2.03-1.96,4.18-3.84,6.47-5.61
		c2.32,1.17,4.52,2.47,6.59,3.87c-0.68-2.36-1.42-4.7-2.24-7.03c2.31-1.56,4.73-3.01,7.26-4.35c1.08,1.09,2.11,2.21,3.09,3.35
		c-3.1,3.61-5.87,7.38-8.28,11.26c4.15-2.01,8.57-3.63,13.21-4.79c2.42,3.63,4.43,7.41,6.04,11.29c0.96-4.27,1.87-8.56,2.73-12.86
		c4.85-0.53,9.86-0.55,14.95,0.03C72.65,41.9,68.15,39.25,63.37,37.09z"/>
	<path class="st1" d="M21.32,20.19c-1.34-0.12-2.7-0.2-4.07-0.24c0.17-1.06,0.36-2.12,0.56-3.18c-1.07,1.03-2.11,2.09-3.12,3.17
		c-1.4,0.02-2.81,0.09-4.24,0.21c0.83,0.58,1.64,1.18,2.43,1.8c-0.97,1.1-1.9,2.22-2.8,3.35c1.39-0.78,2.81-1.51,4.23-2.2
		c0.76,0.64,1.51,1.29,2.24,1.96c0.12-1.05,0.25-2.11,0.4-3.16C18.39,21.28,19.85,20.71,21.32,20.19z"/>
	<path class="st1" d="M63.94,26.76c-0.57,3.6-1.17,7.19-1.81,10.78c3.99,1.74,7.78,3.82,11.35,6.23c-4.27-0.26-8.46-0.11-12.54,0.39
		c-0.67,3.58-1.37,7.16-2.1,10.73c-1.47-3.22-3.23-6.36-5.26-9.4c-3.91,0.94-7.68,2.21-11.27,3.76c2.16-3.16,4.56-6.24,7.19-9.2
		c-2.39-2.87-5.06-5.59-8-8.13c4.5,0.56,8.88,1.51,13.08,2.82C57.48,31.93,60.61,29.26,63.94,26.76z"/>
	<path class="st1" d="M25.37,20.49c0.64,1.22,1.26,2.45,1.86,3.69c2-0.34,3.99-0.61,5.99-0.81c-1.67,0.99-3.3,2.02-4.89,3.1
		c0.59,1.24,1.16,2.49,1.71,3.75c-1.5-0.62-3.03-1.19-4.61-1.72c-1.54,1.13-3.04,2.3-4.5,3.5c0.49-1.47,1.01-2.94,1.56-4.41
		c-1.62-0.46-3.27-0.87-4.96-1.23c2-0.56,4-1.05,6-1.47C24.12,23.41,24.73,21.95,25.37,20.49z"/>
	<path class="st1" d="M38.53,19.59c1.39,1.4,2.73,2.84,4,4.31c2.46-0.53,4.94-0.96,7.45-1.29c-1.78,1.29-3.51,2.64-5.17,4.03
		c1.2,1.5,2.34,3.04,3.42,4.6c-2.08-0.75-4.22-1.42-6.41-1.99c-1.57,1.44-3.08,2.92-4.52,4.44c0.14-1.79,0.28-3.59,0.44-5.38
		c-2.25-0.45-4.55-0.81-6.9-1.07c2.36-0.84,4.76-1.59,7.18-2.24C38.18,23.18,38.35,21.39,38.53,19.59z"/>
	<path class="st1" d="M33.38,32.99c0.7,1.6,1.37,3.22,2.01,4.85c2.17-0.23,4.35-0.36,6.51-0.4c-1.85,1.08-3.64,2.22-5.37,3.41
		c0.61,1.64,1.18,3.28,1.72,4.94c-1.55-0.95-3.16-1.84-4.83-2.67c-1.64,1.26-3.22,2.58-4.73,3.94c0.48-1.8,1.01-3.59,1.58-5.39
		c-1.75-0.74-3.56-1.42-5.42-2.02c2.18-0.53,4.35-0.96,6.53-1.29C32.01,36.56,32.67,34.77,33.38,32.99z"/>
</g>
<g>
	<path class="st3" d="M139.25,84.53c0,0,0.36,5.53-3.25,9.8c-3.61,4.27-9.22,9.74-9.22,9.74l-1.48,6.16c0,0,8.97-6.71,11.71-9.78
		c3.92-3.92,5.07-7.82,5.14-10.15c0.02-0.62-0.29-2.5-0.52-2.97C140.88,85.78,139.25,84.53,139.25,84.53z"/>
	<path class="st3" d="M40.27,124.08c-4.19-1.48-6.39-5.03-6.6-5.39c-0.35,1.29-0.52,2.73-0.08,3.97c1.09,3.07,3.6,5.32,6.92,6.57
		c3.31,1.25,7.4,1.65,8.9,1.77c0.44,0.04,7.5,0.79,7.98,0.82l-5.31-5.34C50.25,126.22,43.09,125.26,40.27,124.08z"/>
	<path class="st3" d="M143.3,85.6c0,0-2.95-5.89-5.36-8.29c-2.4-2.4-9.06-4.77-18.5-5.37c-8.8-0.96-23.43,1.92-23.43,1.92
		s-12.75,2.2-30.79,9.53c-18.04,7.32-28.98,19.01-28.98,19.01s-3.55,3.61-5.35,8.48c-1.32,3.61,0.1,10.94,0.1,10.94
		c0,0,0-2.59,1.28-5.79c2.25-4.89,7.54-10.18,17.4-16.51c9.86-6.33,21.73-10.82,34.07-14.97c12.35-4.15,18.9-4.99,30.63-6.27
		c11.73-1.28,20.33,1.11,24.2,3.13C141.67,83.08,143.3,85.6,143.3,85.6z"/>
	<path class="st4" d="M144.21,87.93c-0.44-2.93-3.67-5.96-6.43-7.11c-12.79-5.3-19.73-3.21-31.58-2.17
		c-11.85,1.04-19.3,4.1-24.49,5.67c-5.71,1.54-14.13,5.19-19,7.39c-2.33,1.06-9.18,4.88-9.18,4.88l-6.5,4.11l-4.56,3.15
		c0,0-6.33,5.15-8.04,7.9c-3.87,6.21-3.46,10.18-3.26,10.96c0.72,2.89,3.37,4.88,5.19,5.95c2.43,1.43,6.85,2.35,11.34,2.85
		c1.56,0.17,9.29,0.98,10.19,1.02l-0.48-0.72c-0.5-0.03-7.54-0.79-7.98-0.82c-1.51-0.12-5.59-0.52-8.9-1.77
		c-3.31-1.25-5.83-3.5-6.92-6.57c-1.09-3.06,1.51-7.4,1.51-7.4s1.62-3.43,6.67-7.94c5.05-4.51,14.85-10.1,26.28-15.39
		c11.42-5.29,19.18-7.03,28.8-9.2c9.62-2.17,17.44-2.65,24.05-2.83c6.61-0.18,11.79,1.38,14.79,2.53c2.69,1.21,4.43,2.56,5.6,4.45
		c0.16,0.26,0.62,1.46,0.67,1.76c0.13,0.73,0.14,1.37,0.08,2.07c-0.06,0.7-0.2,1.44-0.39,2.38c-0.89,2.77-2.34,4.65-5.04,7.8
		c-3.24,3.23-11.33,9.36-11.33,9.36v0.77c0,0,8.29-6.31,10.93-8.53c2.64-2.21,4.99-5.64,4.99-5.64S144.85,92.21,144.21,87.93z"/>
</g>
<g>
	<g>
		<path class="st2" d="M105.62,68.29c-17.65,1.62-33.97,2.91-55.06,17.1c-0.79,0.53-1.35,0.68-1.46,0.01
			c-0.87-5.15-1.65-10.56-2.33-16.28c-0.09-0.74,0.36-1.82,1-2.36c17.58-14.89,35.3-17.24,51.04-14.78
			c0.57,0.09,1.22,0.67,1.47,1.28c1.89,4.69,3.88,9.4,5.97,14.16C106.51,68.03,106.23,68.42,105.62,68.29z"/>
	</g>
	<g>
		<path class="st3" d="M103.82,67.22c-27.27,4.12-30.34,5.04-51.11,14.91c-0.77,0.37-1.24,0.61-1.35,0.04
			c-0.89-4.39-1.69-9.01-2.4-13.9c-0.09-0.63,0.31-1.56,0.89-2.04C65.91,53.14,82.3,50.79,96.93,52.59
			c0.53,0.07,1.14,0.55,1.38,1.07c1.82,3.98,4.07,8.77,6.07,12.81C104.64,66.99,104.39,67.32,103.82,67.22z"/>
	</g>
	<g>
		<g>
			<path class="st1" d="M52.43,78.42c1.11-0.7,2.21-1.38,3.32-2.03c0.02,0.14,0.05,0.28,0.07,0.42c-1.11,0.65-2.22,1.33-3.33,2.03
				C52.47,78.7,52.45,78.56,52.43,78.42L52.43,78.42z M52.01,75.67c1.09-0.69,2.19-1.35,3.28-1.99c0.02,0.14,0.05,0.28,0.07,0.42
				c-1.1,0.64-2.19,1.3-3.29,1.99C52.05,75.96,52.03,75.82,52.01,75.67L52.01,75.67z M51.59,72.81c1.08-0.67,2.16-1.32,3.24-1.94
				c0.02,0.14,0.05,0.28,0.07,0.43c-1.08,0.62-2.17,1.27-3.25,1.95C51.63,73.1,51.61,72.95,51.59,72.81L51.59,72.81z M51.19,69.95
				c1.07-0.66,2.13-1.29,3.2-1.9c0.02,0.14,0.04,0.29,0.07,0.43c-1.07,0.61-2.14,1.24-3.21,1.9C51.23,70.25,51.21,70.1,51.19,69.95
				L51.19,69.95z M50.81,67.15c1.05-0.64,2.11-1.26,3.16-1.85c0.02,0.14,0.04,0.29,0.06,0.43c-1.06,0.59-2.11,1.21-3.17,1.86
				C50.85,67.45,50.83,67.3,50.81,67.15z"/>
			<path class="st1" d="M97.28,64.18c1.04,0,2.07,0.02,3.1,0.07c0.05,0.12,0.1,0.23,0.15,0.35c-1.03-0.05-2.06-0.07-3.1-0.07
				C97.38,64.42,97.33,64.3,97.28,64.18L97.28,64.18z M96.36,61.91c1.03,0.01,2.05,0.04,3.06,0.1c0.05,0.12,0.1,0.23,0.15,0.35
				c-1.02-0.06-2.04-0.09-3.07-0.09C96.45,62.15,96.41,62.03,96.36,61.91L96.36,61.91z M95.42,59.54c1.02,0.02,2.03,0.06,3.03,0.12
				c0.05,0.12,0.1,0.24,0.15,0.35c-1.01-0.06-2.02-0.1-3.04-0.12C95.51,59.78,95.46,59.66,95.42,59.54L95.42,59.54z M94.5,57.18
				c1,0.03,2,0.08,3,0.15c0.05,0.12,0.1,0.24,0.14,0.36c-0.99-0.07-2-0.12-3-0.15C94.59,57.42,94.55,57.3,94.5,57.18L94.5,57.18z
				 M93.62,54.87c0.99,0.04,1.98,0.09,2.96,0.18c0.05,0.12,0.09,0.24,0.14,0.36c-0.98-0.08-1.97-0.14-2.97-0.17
				C93.71,55.12,93.67,54.99,93.62,54.87z"/>
			<path class="st1" d="M79.49,65.78c-0.19-0.63-0.38-1.26-0.57-1.89c1.04-0.25,2.08-0.48,3.11-0.69c0.07,1.06,0.92,1.46,2.06,1.25
				c0.73-0.14,1.62-0.65,1.55-1.37c-0.15-1.48-2.44-0.83-4.99-1.38c-1.19-0.26-1.82-1.17-1.9-2.41c-0.05-2.74,2.19-3.92,4.46-4.19
				c2.25-0.28,4.62,0.39,4.76,2.97c-1.01,0.08-2.03,0.19-3.05,0.31c-0.03-0.42-0.2-0.73-0.5-0.92c-0.28-0.19-0.69-0.27-1.21-0.19
				c-0.7,0.1-1.28,0.66-1.23,1.22c0.07,0.82,1.08,0.91,1.92,1.01c1.92,0.18,4.63,0.11,5,2.98c0.29,2.23-1.95,3.57-4.63,4.11
				C82.29,66.98,80.43,67.03,79.49,65.78L79.49,65.78z M77,57.17c-0.01-0.25-0.03-0.51-0.04-0.76c-0.05,0.01-0.1,0.02-0.16,0.03
				C76.86,56.69,76.93,56.93,77,57.17L77,57.17z M94.14,65.13c-0.53-3.42-1.05-6.85-1.58-10.28c-0.98-0.02-1.97-0.01-2.96,0.01
				c0.47,3.51,0.93,7.01,1.41,10.51C92.06,65.26,93.1,65.18,94.14,65.13z M66.36,63.2c0.15-3.06-2.23-3.11-4.54-2.09
				c-2.35,1.01-4.7,3.07-4.93,6.31c-0.04,1.44,0.49,2.34,1.65,2.31c2.49-0.07,4.88-1.53,4.88,0.19c0,0.84-0.96,1.72-1.71,2.09
				c-1.17,0.58-1.97,0.34-1.93-0.89c-1.08,0.55-2.15,1.13-3.23,1.73c-0.07,3.61,2.34,3.07,5.11,1.67c2.75-1.41,5.2-3.7,5.17-6.3
				c-0.04-3.35-2.84-2.43-4.76-2.08c-0.84,0.14-1.85,0.32-1.83-0.63c0.01-0.65,0.65-1.49,1.37-1.82c0.53-0.24,0.94-0.28,1.21-0.13
				c0.28,0.14,0.42,0.45,0.4,0.95C64.26,64.05,65.31,63.62,66.36,63.2L66.36,63.2z M76.8,56.45c0.07,0.24,0.13,0.48,0.2,0.73
				c0.03,0.49,0.06,0.99,0.09,1.48c-1.81,0.42-3.63,0.91-5.45,1.47c0.03,0.83,0.05,1.65,0.08,2.48c1.7-0.55,3.39-1.03,5.07-1.46
				c0.04,0.75,0.09,1.5,0.13,2.24c-1.7,0.45-3.41,0.96-5.13,1.54c0.03,0.85,0.06,1.69,0.08,2.54c1.88-0.66,3.76-1.24,5.63-1.75
				c0.04,0.74,0.09,1.49,0.13,2.23c-2.97,0.85-5.96,1.88-8.96,3.1c-0.08-4.08-0.15-8.17-0.22-12.27
				C71.25,57.83,74.04,57.05,76.8,56.45L76.8,56.45z M78.92,63.89c-0.02,0-0.04,0.01-0.06,0.01c0.07,0.81,0.29,1.43,0.62,1.87
				C79.3,65.15,79.11,64.53,78.92,63.89z"/>
		</g>
		<g>
			<path class="st5" d="M90.64,61.41c0.93-0.07,1.85-0.11,2.77-0.14c0.19,1.24,0.38,2.48,0.57,3.73c-0.94,0.05-1.88,0.12-2.83,0.21
				C90.99,63.95,90.81,62.68,90.64,61.41z"/>
			<path class="st6" d="M93.29,61.41c0.18,1.15,0.35,2.31,0.53,3.46c-0.84,0.05-1.68,0.11-2.52,0.19c-0.16-1.17-0.32-2.35-0.48-3.52
				C91.64,61.48,92.47,61.44,93.29,61.41 M93.54,61.14c-1.01,0.03-2.04,0.08-3.06,0.15c0.18,1.36,0.37,2.72,0.55,4.08
				c1.05-0.1,2.09-0.18,3.13-0.24C93.95,63.8,93.74,62.47,93.54,61.14L93.54,61.14z"/>
		</g>
		<g>
			<path class="st5" d="M59.6,75.22c-1.95,0.59-2.9-0.13-2.9-2.28c0.97-0.55,1.95-1.07,2.92-1.57c0.04,0.9,0.58,1.29,1.47,1.05
				c0.2-0.05,0.42-0.14,0.65-0.25c0.76-0.38,1.84-1.32,1.84-2.28c0-0.67-0.34-0.91-0.81-0.96c1.26-0.59,2.52-1.14,3.77-1.66
				c0.08,0.28,0.12,0.61,0.12,0.99c0.04,2.73-2.69,4.91-5.04,6.12C60.86,74.76,60.18,75.05,59.6,75.22z"/>
			<path class="st6" d="M66.43,67.48c0.05,0.24,0.08,0.51,0.08,0.81c0.01,1.13-0.48,2.27-1.43,3.34c-0.87,0.99-2.11,1.9-3.48,2.6
				c-0.75,0.38-1.42,0.66-1.99,0.83c-1.83,0.55-2.71-0.07-2.75-2.03c0.88-0.49,1.75-0.96,2.63-1.42c0.1,0.87,0.68,1.22,1.6,0.98
				c0.21-0.06,0.45-0.15,0.69-0.27c0.95-0.47,1.96-1.48,1.96-2.47c0-0.55-0.21-0.83-0.49-0.98C64.31,68.38,65.37,67.92,66.43,67.48
				 M66.65,67.06c-1.56,0.64-3.13,1.33-4.69,2.08c0.89-0.15,1.47-0.07,1.46,0.78c0,0.84-0.96,1.72-1.71,2.09
				c-0.22,0.11-0.43,0.19-0.62,0.24c-0.83,0.22-1.35-0.13-1.32-1.13c-1.08,0.55-2.15,1.13-3.23,1.73c-0.05,2.66,1.24,3.07,3.04,2.53
				c0.64-0.19,1.34-0.5,2.06-0.86c2.75-1.41,5.2-3.7,5.17-6.3C66.82,67.76,66.75,67.38,66.65,67.06L66.65,67.06z"/>
		</g>
		<g>
			<path class="st5" d="M82.24,66.69c-1.23,0.02-2.08-0.3-2.61-0.99c-0.32-0.42-0.51-0.98-0.58-1.68c0.96-0.23,1.92-0.45,2.87-0.64
				c0.12,0.79,0.71,1.25,1.6,1.27c0.2,0,0.42-0.02,0.64-0.06c0.74-0.14,1.74-0.68,1.66-1.5c-0.06-0.58-0.43-0.87-0.91-1.02
				c1.22-0.19,2.44-0.34,3.65-0.47c0.1,0.26,0.18,0.56,0.22,0.87c0.3,2.34-2.24,3.52-4.53,3.99C83.49,66.6,82.82,66.68,82.24,66.69z
				"/>
			<path class="st6" d="M88.45,61.75c0.07,0.22,0.13,0.46,0.16,0.71c0.12,0.97-0.27,1.81-1.13,2.5c-0.79,0.63-1.96,1.1-3.29,1.36
				c-0.73,0.14-1.39,0.22-1.96,0.23c-1.17,0.01-1.98-0.28-2.47-0.93c-0.28-0.37-0.46-0.87-0.54-1.49c0.86-0.21,1.72-0.4,2.58-0.58
				c0.19,0.77,0.81,1.22,1.73,1.23c0.21,0,0.44-0.02,0.68-0.06c0.93-0.17,1.86-0.78,1.76-1.63c-0.05-0.47-0.29-0.77-0.59-0.96
				C86.4,61.98,87.43,61.85,88.45,61.75 M88.63,61.45c-1.5,0.15-3.02,0.35-4.54,0.6c0.89,0.09,1.48,0.31,1.56,1.03
				c0.08,0.72-0.81,1.23-1.55,1.37c-0.21,0.04-0.42,0.06-0.61,0.05c-0.82-0.01-1.39-0.44-1.45-1.3c-1.03,0.21-2.07,0.44-3.11,0.69
				c-0.02,0-0.04,0.01-0.06,0.01c0.07,0.81,0.29,1.43,0.62,1.87c0.6,0.8,1.59,1.07,2.75,1.05c0.64-0.01,1.33-0.1,2.03-0.24
				c2.68-0.54,4.92-1.88,4.63-4.11C88.86,62.08,88.77,61.74,88.63,61.45L88.63,61.45z"/>
		</g>
		<g>
			<path class="st5" d="M68.76,66.39c0.97-0.37,1.93-0.72,2.9-1.05c0.03,0.78,0.05,1.55,0.08,2.33c1.89-0.67,3.77-1.26,5.64-1.77
				c0.04,0.65,0.08,1.29,0.12,1.94c-2.87,0.82-5.75,1.81-8.64,2.98C68.82,69.34,68.79,67.87,68.76,66.39z"/>
			<path class="st6" d="M71.51,65.55c0.02,0.65,0.04,1.3,0.06,1.96c0,0.13,0.01,0.25,0.01,0.38c0.12-0.04,0.25-0.09,0.37-0.13
				c1.76-0.62,3.52-1.17,5.27-1.66c0.03,0.55,0.06,1.09,0.1,1.64c-2.76,0.79-5.54,1.75-8.33,2.87c-0.03-1.37-0.05-2.74-0.08-4.11
				C69.78,66.16,70.65,65.85,71.51,65.55 M71.81,65.13c-1.07,0.36-2.13,0.74-3.2,1.15c0.03,1.59,0.06,3.17,0.09,4.76
				c3-1.22,5.99-2.26,8.96-3.1c-0.05-0.74-0.09-1.49-0.13-2.23c-1.87,0.51-3.75,1.09-5.63,1.75C71.86,66.69,71.83,65.91,71.81,65.13
				L71.81,65.13z"/>
		</g>
	</g>
</g>
<g>
	<path class="st7" d="M138.81,96.66c-29.62-6.02-63.09-1.21-97.35,26.59c-1.23,1.01-2.38,0.97-2.55-0.14
		c-1.38-9.2-2.55-18.83-3.5-28.97c-0.11-1.22,0.72-2.94,1.84-3.77c31.14-23.02,62.26-27.07,89.4-21.92c0.97,0.19,2.09,1.17,2.5,2.16
		c3.39,8.23,6.97,16.45,10.75,24.68C140.36,96.27,139.88,96.88,138.81,96.66z"/>
</g>
<g>
	<path class="st3" d="M136.14,95.01c-28.34-5.93-59.93-2.74-92.44,24.51c-1.17,0.99-2.27,1-2.44-0.03
		c-1.27-7.96-2.37-16.32-3.3-25.17c-0.12-1.15,0.67-2.79,1.75-3.6c29.85-22.36,59.49-25.38,85.65-21.08
		c0.94,0.16,2.01,1.08,2.4,2.02c2.99,7.29,6.13,14.61,9.44,22.01C137.63,94.65,137.16,95.23,136.14,95.01z"/>
</g>
<g>
	<path class="st2" d="M104.05,70.05c-0.76-0.03-1.52-0.05-2.27-0.06c-0.55-0.01-1.07,0.09-1.55,0.29l-0.09-0.31L99.51,70l-1.15,0.05
		c-1.46,0.06-2.96,0.17-4.46,0.33l-1.69,0.18l-0.93,0.1l0.01,0.05c-1.56,0.22-3.14,0.49-4.72,0.81l-1.46,0.29l-0.02,0l0-0.01
		l-0.19,0.05l-0.6,0.12l0.01,0.02l-1.17,0.29c-2.84,0.69-5.74,1.55-8.63,2.56l-0.97,0.34L73,75.35l-0.01,0.57l-0.01,1.03
		c0,0.09,0,0.18,0,0.28c-0.56-0.4-1.25-0.65-2-0.68c-0.64-0.03-1.29,0.09-1.94,0.36c-2.87,1.18-5.83,2.54-8.81,4.06l-0.01-0.05
		l-1.04,0.56l-1.47,0.79l-0.36,0.19l-0.41,0.22l0,0.01c-3.87,2.1-7.76,4.46-11.58,7.03l-0.69,0.46l-0.38,0.26l0.02,0.46l0.04,0.83
		c0.32,6.15,0.69,11.76,1.13,17.14l0.21,2.55l0.11,1.41l1.16-0.81l2.1-1.47c1.88-1.31,3.79-2.59,5.69-3.8l0.76-0.49l0.42-0.27
		l-0.05-0.5l-0.09-0.9c-0.14-1.36-0.28-2.74-0.4-4.11c1.05-0.65,2.12-1.29,3.18-1.91c0.09,0.74,0.17,1.39,0.25,2.01l0.28,2.15
		l0.15,1.19l1.04-0.59l1.89-1.06c1.85-1.04,3.73-2.04,5.57-2.96l0.96-0.48l0.36-0.18l0.05-0.02l1.23-0.59
		c1.79-0.85,3.59-1.65,5.34-2.38l0.53-0.22l0.21-0.09c1.77-0.73,3.57-1.41,5.35-2.03l1.1-0.38l0.41-0.14l0.13-0.04l1.34-0.42
		c1.75-0.55,3.51-1.05,5.23-1.49l0.67-0.17l0.52-0.12c1.55-0.37,3.12-0.71,4.69-0.99l1.11-0.2l0.14-0.02l0.87-0.14
		c1.75-0.28,3.52-0.49,5.24-0.64l1.91-0.17l0.87-0.08c0.09,0.01,0.18,0.01,0.27,0.02c0.15,0.01,0.3,0.01,0.46,0
		c1.95-0.08,3.91-0.08,5.82,0.01c0.76,0.03,1.53,0.08,2.31,0.14l0.27,0.02l0.35,0.03c1.5,0.13,3,0.32,4.46,0.56l1.49,0.24l0.01,0.01
		l0.35,0.07l0.61,0.13c1.44,0.3,2.87,0.64,4.25,1.04l3.53,1l1.94,0.55l-1.03-1.74l-1.86-3.16l-0.09-0.16
		c-0.27-0.46-0.54-0.93-0.81-1.39l-0.04-0.07l-0.02-0.03l-0.02-0.03l-0.04-0.06c-2.68-3.78-5.22-7.73-7.57-11.74l-0.28-0.48
		l-0.16-0.27l-0.3-0.09l-0.53-0.17c-2.28-0.74-4.65-1.33-7.06-1.78l-2.22-0.41l-1.24-0.23l0.03,0.11
		C107.29,70.26,105.67,70.12,104.05,70.05L104.05,70.05L104.05,70.05z M104.01,70.86c1.89,0.08,3.78,0.25,5.61,0.51l0.33,0.05
		l-0.01-0.05l2.22,0.41c2.37,0.44,4.71,1.02,6.96,1.75l0.53,0.17l0.28,0.48c2.35,4.02,4.91,7.99,7.6,11.8l0.04,0.06l0.03,0.06
		c0.3,0.52,0.6,1.04,0.91,1.56l1.86,3.16l-3.53-1c-1.41-0.4-2.86-0.76-4.31-1.05l-0.61-0.13l-0.02-0.03l-1.86-0.3
		c-1.48-0.24-3-0.43-4.52-0.57l-0.36-0.03l-0.27-0.02c-0.77-0.06-1.55-0.11-2.33-0.14c-1.93-0.09-3.91-0.09-5.89-0.01
		c-0.13,0.01-0.26,0.01-0.39,0c-0.48-0.02-0.94-0.12-1.36-0.28l0.13,0.34l-1.91,0.17c-1.74,0.15-3.52,0.37-5.3,0.65l-0.87,0.14
		l0-0.01l-1.26,0.23c-1.56,0.29-3.15,0.62-4.73,1l-0.52,0.13l-0.67,0.17c-1.74,0.44-3.51,0.95-5.28,1.5l-1.34,0.42l-0.48-1.32
		c-0.12-0.32-0.23-0.63-0.35-0.95c0.04,0.44,0.09,0.87,0.14,1.31l0.12,1.16l-1.1,0.38c-1.79,0.62-3.6,1.31-5.39,2.04L75.9,94.7
		l-0.53,0.22c-1.78,0.74-3.59,1.55-5.38,2.4l-1.23,0.59l-0.63-1.11c0.01,0.09,0.03,0.18,0.04,0.27l0.16,1.06l-0.96,0.48
		c-1.85,0.93-3.74,1.93-5.6,2.98l-1.89,1.06l-0.28-2.15c-0.14-1.06-0.27-2.14-0.4-3.22c-1.56,0.89-3.13,1.83-4.68,2.8
		c0.14,1.51,0.29,3.06,0.45,4.62l0.09,0.9l-0.76,0.49c-1.92,1.22-3.84,2.51-5.71,3.82l-2.1,1.47l-0.21-2.55
		c-0.44-5.4-0.81-11-1.13-17.12l-0.04-0.83l0.69-0.46c3.89-2.61,7.86-5.01,11.79-7.13l0.13-0.07l0,0l0.36-0.19l1.47-0.79l0,0.02
		c3.26-1.7,6.54-3.23,9.78-4.56c0.54-0.22,1.08-0.32,1.6-0.3c1.46,0.06,2.54,1.08,2.76,2.59c0.02,0.12,0.04,0.23,0.05,0.35
		c0.01-1.11,0.02-2.22,0.03-3.34l0.01-1.03l0.97-0.34c2.87-1,5.74-1.85,8.55-2.54l1.26-0.31l0.46,1.21c0.39,1.04,0.8,2.07,1.21,3.09
		c-0.23-1-0.45-1.99-0.67-3l-0.31-1.45l1.46-0.29c1.75-0.35,3.51-0.65,5.24-0.87l0.33-0.04l0-0.02l1.69-0.18
		c1.48-0.15,2.96-0.26,4.41-0.32l1.15-0.05l0.21,0.72c0.52-0.47,1.21-0.74,2.02-0.73C102.52,70.81,103.27,70.83,104.01,70.86z"/>
	<g>
		<path class="st1" d="M45.88,108.83c-0.44-5.39-0.81-10.99-1.13-17.13l-0.06-1.06l0.88-0.59c3.88-2.6,7.83-5,11.75-7.12l0,0
			l0.2-0.11l0.36-0.19l1.99-1.07l0,0.04c3.15-1.62,6.27-3.07,9.3-4.31c0.6-0.24,1.19-0.36,1.77-0.33c1,0.04,1.84,0.48,2.41,1.19
			c0-0.39,0.03-2.5,0.03-2.5l1.24-0.43c2.88-1,5.77-1.86,8.59-2.55l1.56-0.38l0-0.01l1.86-0.37c1.72-0.35,3.45-0.64,5.15-0.86
			l0-0.01l0.46-0.07l1.69-0.18c1.49-0.16,2.99-0.26,4.44-0.32l1.47-0.06l0.13,0.47c0.52-0.31,1.13-0.47,1.8-0.46
			c0.74,0.01,1.5,0.03,2.25,0.06c1.81,0.08,3.62,0.24,5.39,0.47l-0.02-0.08l2.84,0.52c2.39,0.44,4.75,1.03,7.01,1.76l0.68,0.22
			l0.36,0.62c2.35,4.02,4.9,7.98,7.58,11.77l0.05,0.07l0.04,0.07c0.27,0.47,0.54,0.94,0.81,1.4l2.47,4.19l-4.5-1.28
			c-1.4-0.4-2.84-0.75-4.28-1.05l-0.79-0.16l-0.01-0.02l-1.67-0.27c-1.47-0.24-2.98-0.43-4.49-0.56l-0.36-0.03l-0.27-0.02
			c-0.78-0.06-1.56-0.11-2.32-0.14c-1.92-0.08-3.89-0.09-5.86-0.01c-0.14,0.01-0.28,0.01-0.42,0c-0.23-0.01-0.46-0.04-0.69-0.08
			l0.04,0.1l-2.44,0.21c-1.73,0.15-3.51,0.37-5.27,0.65l-1.08,0.17l-1.05,0.19c-1.57,0.29-3.15,0.62-4.71,1l-0.52,0.13l-0.66,0.17
			c-1.73,0.44-3.5,0.94-5.25,1.5l-1.59,0.5l0,0l-1.4,0.49c-1.79,0.62-3.59,1.31-5.37,2.03l-0.22,0.09l-0.52,0.22
			c-1.76,0.73-3.56,1.53-5.36,2.39l-1.39,0.66l0,0l-1.22,0.61c-1.85,0.93-3.72,1.92-5.58,2.97l-2.41,1.36l-0.36-2.75
			c-0.11-0.86-0.22-1.74-0.33-2.62c-1.31,0.75-2.62,1.54-3.93,2.35c0.13,1.45,0.28,2.92,0.43,4.37l0.12,1.15l-0.97,0.62
			c-1.9,1.21-3.82,2.49-5.7,3.81l-2.67,1.87L45.88,108.83z"/>
		<path class="st2" d="M53.51,104.82c-1.92,1.22-3.84,2.51-5.77,3.86c-0.45-5.53-0.82-11.22-1.12-17.08
			c3.91-2.63,7.81-4.98,11.67-7.06c0.06,0.7,0.12,1.39,0.18,2.08c-0.22,0.86-0.43,1.72-0.65,2.59c-1.8,1-3.6,2.06-5.4,3.18
			c0.07,0.91,0.14,1.82,0.21,2.73c1.82-1.14,3.64-2.22,5.45-3.24c0.14,1.37,0.28,2.74,0.42,4.09c-1.83,1.05-3.68,2.16-5.52,3.32
			C53.15,101.15,53.33,103,53.51,104.82z"/>
		<path class="st2" d="M65.09,85.43c0.12,1.01,0.25,2.01,0.37,3.01c0.72-0.35,1.44-0.69,2.16-1.02c-0.14-0.99-0.27-1.99-0.4-2.99
			C66.52,84.75,65.81,85.09,65.09,85.43L65.09,85.43z M69.9,79c1.22-0.5,2.19,0,2.35,1.15c0.3,2.07,0.62,4.13,0.96,6.15
			c0.12,0.73-0.35,1.79-1.14,2.34c0.78,1.02,1.57,2.04,2.38,3.04c0.12,0.63,0.24,1.25,0.36,1.88c-1.81,0.75-3.62,1.56-5.44,2.43
			c-0.77-1.35-1.52-2.72-2.25-4.12c-0.37,0.18-0.74,0.36-1.11,0.54c0.23,1.64,0.47,3.26,0.72,4.87c-1.88,0.94-3.77,1.95-5.66,3.01
			c-0.68-5.27-1.28-10.69-1.79-16.28C62.86,82.1,66.4,80.44,69.9,79z"/>
		<path class="st2" d="M81.85,83.73c-0.47-1.43-0.93-2.88-1.37-4.34c-0.19,0.06-0.37,0.11-0.56,0.17c0.13,1.56,0.26,3.12,0.4,4.66
			C80.83,84.05,81.34,83.89,81.85,83.73L81.85,83.73z M83.67,74.47c1.62,4.27,3.37,8.39,5.27,12.39c0.16,0.59,0.32,1.19,0.49,1.78
			c-1.77,0.45-3.56,0.96-5.36,1.53c-0.34-0.94-0.68-1.89-1.02-2.85c-0.78,0.24-1.56,0.5-2.34,0.77c0.1,1.03,0.2,2.07,0.31,3.09
			c-1.81,0.63-3.63,1.32-5.46,2.07c-0.12-0.62-0.24-1.24-0.36-1.87c-0.02-4.74,0-9.54,0.06-14.41
			C78.1,75.98,80.91,75.15,83.67,74.47z"/>
		<path class="st2" d="M96.61,79.23c-0.69-1.58-1.36-3.17-2.01-4.79c-0.16-0.6-0.32-1.2-0.47-1.81c1.46-0.15,2.9-0.26,4.32-0.32
			c1.38,4.79,2.9,9.44,4.56,13.97c-1.78,0.15-3.58,0.38-5.4,0.66c-1.51-2-2.96-4.04-4.36-6.11c-0.13,0.02-0.26,0.04-0.39,0.07
			c0.66,1.58,1.34,3.13,2.04,4.67c0.18,0.58,0.36,1.16,0.54,1.74c-1.59,0.29-3.19,0.63-4.81,1.02c-1.33-4.73-2.54-9.6-3.62-14.61
			c1.73-0.35,3.44-0.63,5.14-0.86c1.3,2.17,2.65,4.31,4.06,6.41C96.34,79.27,96.48,79.25,96.61,79.23z"/>
		<path class="st2" d="M109.42,72.82c0.21,0.57,0.42,1.14,0.64,1.7c0,0.55-0.01,1.1-0.01,1.65c-1.45-0.16-2.91-0.27-4.41-0.32
			c0.81,2.3,1.66,4.57,2.55,6.8c1.81,0.02,3.59,0.11,5.34,0.28c0.49,1.1,0.99,2.2,1.5,3.29c-2.74-0.22-5.54-0.27-8.4-0.16
			c-1.18,0.05-2.27-0.58-2.64-1.58c-1.26-3.41-2.43-6.89-3.52-10.44c-0.31-1.03,0.22-1.79,1.3-1.78
			C104.38,72.29,106.93,72.48,109.42,72.82z"/>
		<path class="st2" d="M119.26,81.37c-0.76-1.32-1.5-2.65-2.22-4c-0.15-0.04-0.31-0.07-0.46-0.11c0.46,1.29,0.93,2.57,1.42,3.84
			C118.42,81.19,118.84,81.28,119.26,81.37L119.26,81.37z M118.68,74.92c2.37,4.06,4.92,8.03,7.67,11.91
			c0.3,0.53,0.61,1.05,0.92,1.57c-1.45-0.41-2.92-0.77-4.42-1.08c-0.55-0.87-1.1-1.75-1.63-2.64c-0.64-0.14-1.29-0.26-1.95-0.38
			c0.34,0.85,0.68,1.7,1.03,2.55c-1.52-0.25-3.06-0.44-4.62-0.58c-0.26-0.54-0.51-1.08-0.76-1.63c-1.07-3.76-2.07-7.57-3.01-11.43
			C114.23,73.64,116.49,74.22,118.68,74.92z"/>
	</g>
</g>
</svg>
